<svg xmlns="http://www.w3.org/2000/svg" data-name="Layer 1" viewBox="0 0 512 512" id="palette"><path d="M483.642,77.092l-38.817-53.92A7.845,7.845,0,0,0,438.331,20h0a7.848,7.848,0,0,0-6.493,3.164L393.017,77.018a7.28,7.28,0,0,0-.418.6c-8.6,14.749-8.5,32.627.247,47.859a52.9,52.9,0,0,0,19.969,19.757l-13.284,90.5a8.121,8.121,0,0,0-.079,1.47L407.418,442a30.931,30.931,0,0,0,61.816,0L477.2,237.2a7.978,7.978,0,0,0-.09-1.544l-14.036-90A52.95,52.95,0,0,0,483.853,125.4c8.71-15.2,8.783-33.029.192-47.689C483.92,77.5,483.786,77.292,483.642,77.092Zm-30.4,364.335a14.933,14.933,0,0,1-29.84.013L415.764,245h45.125ZM459.861,229H416.706l11.444-78.017a53.193,53.193,0,0,0,19.575.16ZM469.97,117.446a36.3,36.3,0,0,1-63.251.042c-5.888-10.246-6.056-21.719-.479-31.535l32.077-44.572,32.1,44.723C475.979,95.833,475.821,107.236,469.97,117.446Z"></path><path d="M461.587 92.325a8 8 0 0 0-8 8 15.513 15.513 0 0 1-15.558 15.431 8 8 0 0 0 0 16 31.53 31.53 0 0 0 31.558-31.431A8 8 0 0 0 461.587 92.325zM345.335 376.723c-29.116-7.671-51.539-30.1-61.335-61.536a65.49 65.49 0 0 1-3-19.491h0a65.5 65.5 0 0 1 3-19.488c9.8-31.435 32.168-53.864 61.283-61.537a33.556 33.556 0 0 0 24.026-23.514 33.037 33.037 0 0 0-8.083-32.119c-.6-.622-1.195-1.243-1.807-1.863-36.712-37.236-86.326-57.869-139.709-58.1l-.9 0c-53.024 0-102.45 20.178-139.255 56.869a197.346 197.346 0 0 0 .016 279.538c36.8 36.681 86.217 56.848 139.233 56.848.305 0 .612 0 .919 0 53.38-.234 102.991-20.868 139.694-58.1q.918-.931 1.825-1.875a33.04 33.04 0 0 0 8.094-32.116A33.521 33.521 0 0 0 345.335 376.723zm4.372 44.541c-.556.578-1.114 1.153-1.683 1.728-33.693 34.177-79.284 53.118-128.373 53.333-.284 0-.562 0-.846 0-48.75 0-94.16-18.513-127.94-52.18a181.344 181.344 0 0 1-.013-256.875c33.785-33.682 79.2-52.2 127.96-52.2l.832 0c49.093.212 94.689 19.153 128.385 53.331q.847.859 1.674 1.72a16.97 16.97 0 0 1 4.229 16.7A17.669 17.669 0 0 1 341.259 199.2c-34.559 9.106-60.958 35.439-72.431 72.248a83.034 83.034 0 0 0 0 48.5C280.3 356.757 306.7 383.09 341.259 392.2a17.668 17.668 0 0 1 12.673 12.37A16.966 16.966 0 0 1 349.707 421.264z"></path><path d="M236.854 383.74a33.82 33.82 0 1 0 47.828 0A33.6 33.6 0 0 0 236.854 383.74zm36.513 36.514a17.817 17.817 0 1 1 5.22-12.6A17.839 17.839 0 0 1 273.367 420.254zM130.717 323.1a33.8 33.8 0 1 0 0 47.828A33.858 33.858 0 0 0 130.717 323.1zM119.4 359.618a17.81 17.81 0 1 1 0-25.2A17.839 17.839 0 0 1 119.4 359.618zM101.094 291.45a33.8 33.8 0 1 0-23.914-9.889A33.716 33.716 0 0 0 101.094 291.45zm-12.6-46.4a17.819 17.819 0 1 1 0 25.2A17.839 17.839 0 0 1 88.494 245.047zM159.449 219.743a33.8 33.8 0 1 0-23.914-9.889A33.715 33.715 0 0 0 159.449 219.743zm-12.6-46.4a17.819 17.819 0 1 1 0 25.2A17.76 17.76 0 0 1 146.85 173.34zM254.01 208.5a33.794 33.794 0 1 0-23.914-9.89A33.722 33.722 0 0 0 254.01 208.5zm-12.6-46.4a17.818 17.818 0 1 1 0 25.2h0a17.817 17.817 0 0 1 0-25.2zM147.392 384.8a33.819 33.819 0 1 0 47.828 0A33.857 33.857 0 0 0 147.392 384.8zm36.513 36.514a17.811 17.811 0 1 1 0-25.2A17.839 17.839 0 0 1 183.905 421.312zM258.205 295.365A50.334 50.334 0 1 0 207.871 345.7 50.391 50.391 0 0 0 258.205 295.365zM207.871 329.7a34.334 34.334 0 1 1 34.334-34.333A34.372 34.372 0 0 1 207.871 329.7z"></path></svg>