<svg xmlns="http://www.w3.org/2000/svg" data-name="Layer 1" viewBox="0 0 64 64" id="setting"><path d="M32,39.67a7.81,7.81,0,1,1,7.81-7.81A7.81,7.81,0,0,1,32,39.67Zm0-10.62a2.81,2.81,0,1,0,2.81,2.81A2.81,2.81,0,0,0,32,29.05Zm2.3,30.33H29.7A5.38,5.38,0,0,1,24.33,54V51.4a.37.37,0,0,0-.63-.26L21.86,53a5.37,5.37,0,0,1-7.6,0L11,49.74a5.36,5.36,0,0,1,0-7.6l1.84-1.84a.37.37,0,0,0-.26-.63H10A5.38,5.38,0,0,1,4.62,34.3V29.7A5.38,5.38,0,0,1,10,24.33H12.6a.37.37,0,0,0,.26-.63L11,21.86a5.36,5.36,0,0,1,0-7.6L14.26,11a5.37,5.37,0,0,1,7.6,0l1.84,1.84a.37.37,0,0,0,.63-.26V10A5.38,5.38,0,0,1,29.7,4.62h4.6A5.38,5.38,0,0,1,39.67,10V12.6a.37.37,0,0,0,.63.26L42.14,11a5.37,5.37,0,0,1,7.6,0L53,14.26a5.36,5.36,0,0,1,0,7.6L51.14,23.7a.37.37,0,0,0,.26.63H54a5.38,5.38,0,0,1,5.37,5.37v4.6A5.38,5.38,0,0,1,54,39.67H51.4a.37.37,0,0,0-.26.63L53,42.14a5.36,5.36,0,0,1,0,7.6L49.74,53a5.37,5.37,0,0,1-7.6,0L40.3,51.14a.37.37,0,0,0-.63.26V54A5.38,5.38,0,0,1,34.3,59.38ZM24,46a5.37,5.37,0,0,1,5.37,5.37V54a.38.38,0,0,0,.37.37h4.6a.38.38,0,0,0,.37-.37V51.4a5.37,5.37,0,0,1,9.16-3.8l1.85,1.85a.37.37,0,0,0,.52,0l3.25-3.25a.36.36,0,0,0,0-.52L47.6,43.83a5.37,5.37,0,0,1,3.8-9.16H54a.38.38,0,0,0,.37-.37V29.7a.38.38,0,0,0-.37-.37H51.4a5.37,5.37,0,0,1-3.8-9.16l1.85-1.85a.36.36,0,0,0,0-.52L46.2,14.55a.37.37,0,0,0-.52,0L43.83,16.4a5.37,5.37,0,0,1-9.16-3.8V10a.38.38,0,0,0-.37-.37H29.7a.38.38,0,0,0-.37.37V12.6a5.37,5.37,0,0,1-9.16,3.8l-1.85-1.85a.37.37,0,0,0-.52,0L14.55,17.8a.36.36,0,0,0,0,.52l1.85,1.85a5.37,5.37,0,0,1-3.8,9.16H10a.38.38,0,0,0-.37.37v4.6a.38.38,0,0,0,.37.37H12.6a5.37,5.37,0,0,1,3.8,9.16l-1.85,1.85a.36.36,0,0,0,0,.52l3.25,3.25a.37.37,0,0,0,.52,0l1.85-1.85A5.34,5.34,0,0,1,24,46Z"></path></svg>